<svg xmlns="http://www.w3.org/2000/svg" width="67" height="67" viewBox="0 0 67 67"><defs><style>.a{fill:#fe7568;}</style></defs><path class="a" d="M178.977,9180.439a33.5,33.5,0,1,1-33.29-33.64A33.475,33.475,0,0,1,178.977,9180.439Zm-50.669-12.5a12.006,12.006,0,0,0,.811,1.057c5.111,5.04,10.246,10.058,15.328,15.128.9.9,1.421.514,2.119-.176q7.436-7.361,14.9-14.688c.334-.329.624-.705,1.165-1.32Zm-.5,25.458h35.213l-11.3-11.845c-1.7,1.849-3.25,3.6-4.871,5.282-1.4,1.45-1.432,1.416-2.835.044-1.729-1.69-3.455-3.386-5.239-5.133Zm36.41-2.069.316-.279v-21.472l-10.5,11.086C157.2,9183.973,160.711,9187.652,164.223,9191.328Zm-37.945-.268.369.216,10.222-10.828-9.862-11.069-.729.6Z" transform="translate(-111.977 -9146.8)"/></svg>