<svg xmlns="http://www.w3.org/2000/svg" width="67" height="67" viewBox="0 0 67 67"><defs><style>.a{fill:#fe7568;}</style></defs><path class="a" d="M-186.366,9180.264a33.438,33.438,0,0,1,33.451-33.466,33.505,33.505,0,0,1,33.549,33.553A33.481,33.481,0,0,1-153,9213.8,33.408,33.408,0,0,1-186.366,9180.264Zm41.351,17.425c3.491-.256,5.849-1.448,7.478-4.04.925-1.472.918-2.511-.33-3.7-1.1-1.046-2.419-1.857-3.584-2.841-2.4-2.021-4.836-2.77-7.49-.474a1.166,1.166,0,0,1-.269.145c-2.468,1.194-4.291.939-6.258-1.008-1.084-1.072-2.082-2.238-3.065-3.408-1.813-2.159-1.944-4.38-.077-6.461a3.2,3.2,0,0,0,.412-4.169c-1.173-2.023-2.457-3.985-3.751-5.935-1.283-1.934-2.614-2.131-4.493-.762a8.839,8.839,0,0,0-3.51,9.576,22.351,22.351,0,0,0,1.613,4.272c3.835,7.814,9.983,13.3,17.68,17.1A34.487,34.487,0,0,0-145.015,9197.688Z" transform="translate(186.366 -9146.798)"/></svg>